<?xml version="1.0" standalone="no"?><!DOCTYPE svg PUBLIC "-//W3C//DTD SVG 1.1//EN" "http://www.w3.org/Graphics/SVG/1.1/DTD/svg11.dtd"><svg t="1584873386768" class="icon" viewBox="0 0 1024 1024" version="1.1" xmlns="http://www.w3.org/2000/svg" p-id="7312" xmlns:xlink="http://www.w3.org/1999/xlink" width="200" height="200"><defs><style type="text/css"></style></defs><path d="M104.018137 245.487859h815.963726v708.854122h-815.963726z" fill="#F2F2F2" p-id="7313"></path><path d="M397.526035 842.4791V524.685363c0-63.118817 51.35285-114.471666 114.473965-114.471666s114.473965 51.35285 114.473965 114.471666v317.791439h-228.94793z" fill="#CCCCCC" p-id="7314"></path><path d="M409.018482 842.4791V524.685363c0-56.78418 46.197338-102.979219 102.981518-102.979219s102.981518 46.197338 102.981518 102.979219v317.791439h-205.963036z" fill="#B3B3B3" p-id="7315"></path><path d="M420.510929 830.986653V524.685363c0-50.447245 41.039528-91.486772 91.486773-91.486773s91.489071 41.039528 91.48907 91.486773v306.298992h-182.975843z" fill="#F2F2F2" p-id="7316"></path><path d="M512 444.691037c44.179264 0 79.996624 35.815061 79.996624 79.994326v294.806545h-159.99095v-294.804247c-0.002298-44.181563 35.812763-79.996624 79.994326-79.996624z" fill="#2D4151" p-id="7317"></path><path d="M584.409311 710.350439v102.450567H525.802429c0 0.002298 51.4287-16.452587 58.606882-102.450567zM499.365204 710.350439v102.450567H440.758322c0 0.002298 51.4287-16.452587 58.606882-102.450567z" fill="#FCFAFA" p-id="7318"></path><path d="M919.981863 245.487859v34.61525h-815.963726v-34.61525h41.142959l366.838904-174.11057 366.838904 174.11057z" fill="#E6E6E6" p-id="7319"></path><path d="M1024 254.681816H0L512 11.674028z" fill="#B3B3B3" p-id="7320"></path><path d="M952.57904 254.681816H71.423259L512 45.579044z" fill="#F2F2F2" p-id="7321"></path><path d="M236.181275 414.04298h89.641086v378.485349h-89.641086z" fill="#E6E6E6" p-id="7322"></path><path d="M213.196382 377.26715h135.610873v36.77583h-135.610873zM213.196382 792.526031h135.610873v36.77583h-135.610873z" fill="#B3B3B3" p-id="7323"></path><path d="M698.177639 414.04298h89.641086v378.485349h-89.641086z" fill="#E6E6E6" p-id="7324"></path><path d="M675.192745 377.26715h135.610873v36.77583h-135.610873zM675.192745 792.526031h135.610873v36.77583h-135.610873z" fill="#B3B3B3" p-id="7325"></path><path d="M169.525084 829.301861h179.282171v121.819936h-179.282171zM675.192745 829.301861h179.282171v121.819936h-179.282171z" fill="#E6E6E6" p-id="7326"></path><path d="M348.807255 829.301861h326.38549v177.135382h-326.38549z" fill="#CCCCCC" p-id="7327"></path><path d="M348.807255 829.301861h326.38549v11.492447h-326.38549zM348.807255 874.50855h326.38549v11.492447h-326.38549z" fill="#B3B3B3" p-id="7328"></path><path d="M330.41934 919.71294h363.16132v92.615331h-363.16132z" fill="#CCCCCC" p-id="7329"></path><path d="M330.41934 919.71294h363.16132v11.492447h-363.16132zM330.41934 964.912734h363.16132v11.492447h-363.16132z" fill="#B3B3B3" p-id="7330"></path><path d="M166.293408 254.681816h691.415483v122.585334H166.293408z" fill="#CCCCCC" p-id="7331"></path><path d="M834.721699 333.428062v-34.909456a20.854194 20.854194 0 0 1-20.854194-20.854194H210.132495a20.854194 20.854194 0 0 1-20.854194 20.854194v34.909456a20.854194 20.854194 0 0 1 20.854194 20.854194h603.737308a20.851896 20.851896 0 0 1 20.851896-20.854194z" fill="#FFFFFF" p-id="7332"></path><path d="M255.718435 775.673507a6.130071 6.130071 0 0 1-6.130071-6.130071V437.027874a6.130071 6.130071 0 1 1 12.260142 0v332.515562a6.130071 6.130071 0 0 1-6.130071 6.130071zM281.001818 775.673507a6.130071 6.130071 0 0 1-6.130071-6.130071V437.027874a6.130071 6.130071 0 1 1 12.260142 0v332.515562a6.130071 6.130071 0 0 1-6.130071 6.130071zM306.285201 775.673507a6.130071 6.130071 0 0 1-6.130071-6.130071V437.027874a6.130071 6.130071 0 1 1 12.260142 0v332.515562a6.130071 6.130071 0 0 1-6.130071 6.130071z" fill="#CCCCCC" p-id="7333"></path><path d="M717.714799 775.673507a6.130071 6.130071 0 0 1-6.130071-6.130071V437.027874a6.130071 6.130071 0 1 1 12.260142 0v332.515562a6.130071 6.130071 0 0 1-6.130071 6.130071zM742.998182 775.673507a6.130071 6.130071 0 0 1-6.130071-6.130071V437.027874a6.130071 6.130071 0 1 1 12.260142 0v332.515562a6.130071 6.130071 0 0 1-6.130071 6.130071zM768.281565 775.673507a6.130071 6.130071 0 0 1-6.130071-6.130071V437.027874a6.130071 6.130071 0 1 1 12.260142 0v332.515562a6.130071 6.130071 0 0 1-6.130071 6.130071z" fill="#CCCCCC" p-id="7334"></path><path d="M371.31866 334.476173c2.176669-0.229849 3.59024-0.618294 4.238414-1.165334 0.645876-0.54704 0.969963-1.93303 0.969962-4.157967v-26.354479c0-2.103118-0.31949-3.475316-0.956171-4.12349-0.636682-0.645876-2.052551-1.045813-4.252205-1.199812v-1.098677h16.719211v1.098677c-2.178968 0.114924-3.640807 0.473489-4.380921 1.071097-0.742412 0.597607-1.112469 1.880164-1.112468 3.847671v28.466791c0 0.655069 0.110327 1.17223 0.333281 1.546883 0.220655 0.376952 0.707935 0.613697 1.461839 0.710233 0.443608 0.057462 0.9125 0.096537 1.404377 0.114925 0.491877 0.018388 1.415869 0.02988 2.767381 0.02988 5.270436 0 8.833095-0.434414 10.687976-1.300945 1.852582-0.868829 3.647703-3.086871 5.38536-6.654127h1.505511l-2.896097 10.269651h-31.87545v-1.100977zM413.307463 334.476173c2.411115-0.172387 3.974088-0.53325 4.688919-1.08029 0.712532-0.54704 1.068798-1.960611 1.068797-4.243011v-26.354479c0-2.178968-0.358564-3.581046-1.068797-4.208534-0.71483-0.627488-2.277803-0.997544-4.688919-1.114768v-1.098677h17.532877v1.098677c-2.413414 0.114924-3.974088 0.48728-4.688918 1.114768-0.712532 0.627488-1.068798 2.029566-1.068798 4.208534v26.354479c0 2.2824 0.356266 3.698269 1.068798 4.243011 0.712532 0.54704 2.275504 0.905605 4.688918 1.08029v1.098678h-17.532877v-1.098678zM438.636816 334.476173c2.378936-0.133312 3.918924-0.503369 4.619964-1.107872 0.698741-0.604503 1.05041-2.00888 1.05041-4.215429v-26.354479c0-2.178968-0.351669-3.581046-1.05041-4.208534-0.701039-0.627488-2.241027-0.997544-4.619964-1.114768v-1.098677h16.590497c4.741784 0 8.504411 0.763098 11.287881 2.286996s4.176355 4.151072 4.176355 7.874625c0 2.79956-0.974559 4.923364-2.92138 6.371413-1.100976 0.829755-2.748993 1.514704-4.948648 2.054849 2.719113 0.655069 5.042886 1.74915 6.971319 3.279944 1.928433 1.533092 2.893798 3.677583 2.893798 6.431174 0 4.624561-2.137595 7.80567-6.415084 9.538731-2.254818 0.905605-5.031393 1.358407-8.325129 1.358407h-19.309609v-1.09638z m22.274661-21.497771c2.507652-1.158439 3.760329-3.236273 3.760328-6.231204 0-3.537375-1.44575-5.923207-4.339548-7.159795-1.599749-0.675756-4.03155-1.013634-7.290808-1.013634-1.234289 0-1.997387 0.108029-2.284698 0.31949-0.291908 0.211461-0.434414 0.792979-0.434415 1.739957v13.390999l5.642792-0.087343c1.985895-0.041373 3.633912-0.358564 4.946349-0.95847z m1.910044 18.689017c2.043357-1.176827 3.066185-3.433943 3.066185-6.769051 0-3.31672-1.195214-5.583031-3.587942-6.798931-2.390429-1.215901-5.438226-1.822702-9.141092-1.822702h-1.721568c-0.241341 0-0.611398-0.009194-1.112469-0.027582v14.754003c0 1.022828 0.28961 1.682494 0.868829 1.981298s1.919239 0.448205 4.020058 0.448205c3.027111 0 5.562344-0.586115 7.607999-1.76524zM483.287271 334.476173c2.273206-0.211461 3.691374-0.652771 4.252205-1.32393 0.558533-0.671159 0.838949-2.23643 0.838949-4.693515v-25.660335c0-2.082431-0.314893-3.447734-0.942381-4.09361-0.625189-0.645876-2.011178-1.057305-4.151072-1.229692v-1.098677h16.40202c3.413257 0 6.256488 0.432116 8.534291 1.300945 4.32116 1.636524 6.479442 4.649844 6.479442 9.042257 0 2.946663-0.95847 5.210675-2.877709 6.789737-1.919239 1.579062-4.528024 2.620278-7.824058 3.11905l12.207278 15.036718c0.753905 0.919396 1.503212 1.588256 2.257116 2.00888 0.749308 0.420624 1.714673 0.687248 2.893798 0.802172v1.098678h-9.543328l-14.820659-18.254602-2.597293 0.144805v11.676326c0 2.192759 0.330982 3.581046 0.997544 4.164862 0.664263 0.586115 2.116909 0.974559 4.353339 1.167633v1.098678h-16.459482v-1.09638z m20.25199-20.541599c3.142035-1.289453 4.714202-3.714359 4.714201-7.277017 0-3.427048-1.408974-5.764611-4.224623-7.01499-1.503212-0.673457-3.500599-1.011335-5.989863-1.011335-1.675599 0-2.703024 0.12182-3.079976 0.360862-0.374654 0.241341-0.56313 0.804471-0.56313 1.68939v14.583915c4.261399-0.153999 7.309196-0.597607 9.143391-1.330825zM528.316976 334.476173c2.176669-0.229849 3.59024-0.618294 4.238414-1.165334 0.645876-0.54704 0.969963-1.93303 0.969963-4.157967v-26.354479c0-2.103118-0.31949-3.475316-0.956172-4.12349-0.636682-0.645876-2.052551-1.045813-4.252205-1.199812v-1.098677h31.475514l0.202267 8.476828h-1.503212c-0.501071-2.611084-1.252677-4.300474-2.257117-5.068169s-3.24087-1.151543-6.711589-1.151543h-8.065399c-0.871127 0-1.408974 0.140208-1.611241 0.420624s-0.303401 0.804471-0.303401 1.576763v13.220911h9.141092c2.523741 0 4.134982-0.372355 4.831425-1.121663 0.694144-0.749308 1.252677-2.264012 1.677897-4.54871h1.388288v13.682907h-1.388288c-0.443608-2.296191-1.013634-3.813194-1.707777-4.557904-0.694144-0.742412-2.296191-1.112469-4.801545-1.112469h-9.141092v14.666661c0 1.176827 0.370057 1.87097 1.114767 2.082431 0.742412 0.211461 2.96735 0.317192 6.679411 0.317191 4.017759 0 6.982811-0.439011 8.892855-1.317034 1.912343-0.875724 3.631613-3.004126 5.155512-6.378308h1.650315l-2.691531 10.009921h-32.024852l-0.002299-1.098678zM570.01617 334.476173c2.273206-0.211461 3.691374-0.652771 4.252206-1.32393 0.558533-0.671159 0.838949-2.23643 0.838948-4.693515v-25.660335c0-2.082431-0.314893-3.447734-0.94238-4.09361-0.625189-0.645876-2.011178-1.057305-4.151072-1.229692v-1.098677h16.40202c3.413257 0 6.256488 0.432116 8.534291 1.300945 4.32116 1.636524 6.479442 4.649844 6.479441 9.042257 0 2.946663-0.95847 5.210675-2.877708 6.789737-1.919239 1.579062-4.528024 2.620278-7.824058 3.11905l12.207277 15.036718c0.753905 0.919396 1.503212 1.588256 2.259415 2.00888 0.749308 0.420624 1.714673 0.687248 2.893798 0.802172v1.098678h-9.543328l-14.820659-18.254602-2.597293 0.144805v11.676326c0 2.192759 0.330982 3.581046 0.997544 4.164862 0.664263 0.586115 2.116909 0.974559 4.353339 1.167633v1.098678h-16.459482v-1.09638h-0.002299z m20.25199-20.541599c3.142035-1.289453 4.714202-3.714359 4.714202-7.277017 0-3.427048-1.408974-5.764611-4.224624-7.01499-1.505511-0.673457-3.500599-1.011335-5.989863-1.011335-1.675599 0-2.703024 0.12182-3.079976 0.360862-0.374654 0.241341-0.56313 0.804471-0.56313 1.68939v14.583915c4.261399-0.153999 7.309196-0.597607 9.143391-1.330825zM629.018392 296.374115v1.098678c-1.388288-0.039074-2.429503 0.066656-3.123647 0.317192s-1.041216 0.79068-1.041215 1.620435c0 0.250535 0.057462 0.565428 0.174685 0.940082 0.114924 0.376952 0.374654 0.873426 0.781486 1.489421l8.71817 12.788795 8.50671-12.991062c0.344773-0.558533 0.572324-1.022828 0.678054-1.388288 0.105731-0.36546 0.158596-0.636682 0.158596-0.809068 0-0.848143-0.455101-1.408974-1.358407-1.677897-0.540145-0.174685-1.466436-0.268923-2.776576-0.28961v-1.098678h12.947391v1.098678c-1.192916 0.057462-2.261714 0.413728-3.204094 1.071096-1.464138 1.022828-3.109856 2.92138-4.939454 5.700254l-8.750349 13.365715v11.522328c0 2.291594 0.372355 3.721254 1.112469 4.288981 0.742412 0.567727 2.406518 0.919396 4.992319 1.052708v1.098678H623.810015v-1.098678c2.680039-0.153999 4.344145-0.553936 4.990021-1.197513 0.645876-0.645876 0.969963-2.257117 0.969962-4.83832v-10.281143l-7.752804-11.368329c-2.680039-3.914327-4.562501-6.426576-5.642792-7.536746a5.716343 5.716343 0 0 0-3.935013-1.779031v-1.098678h16.579003z" fill="#2D4151" p-id="7335"></path><path d="M424.655105 534.48842h174.687491v9.800759h-174.687491zM424.655105 584.480564h174.687491v9.800759h-174.687491z" fill="#F2F2F2" p-id="7336"></path><path d="M507.099621 588.231699h9.800758v235.326237h-9.800758z" fill="#F2F2F2" p-id="7337"></path><path d="M512 167.405876m-64.615133 0a64.615133 64.615133 0 1 0 129.230266 0 64.615133 64.615133 0 1 0-129.230266 0Z" fill="#CCCCCC" p-id="7338"></path><path d="M563.612579 167.408175c0 28.501268-23.099818 51.624071-51.624071 51.624071-16.687033 0-31.535274-7.929788-40.959081-20.226706a51.283895 51.283895 0 0 1-10.642006-31.397365c0-28.501268 23.099818-51.624071 51.601087-51.624071 16.20435 0 30.661848 7.47009 40.108639 19.123431 7.217257 8.872169 11.515432 20.180737 11.515432 32.50064z" fill="#2D4151" p-id="7339"></path><path d="M557.820386 168.605688c0 24.934013-20.208319 45.163018-45.163018 45.163018-14.597706 0-27.588768-6.936841-35.833449-17.69607 34.14406-17.392669 56.584211-38.226177 70.922188-55.90156a44.889497 44.889497 0 0 1 10.074279 28.434612z" fill="#FCFAFA" p-id="7340"></path><path d="M506.828399 108.727741h10.343202v116.073714h-10.343202z" fill="#CCCCCC" p-id="7341"></path><path d="M453.963143 161.592997h116.073714v10.343202h-116.073714z" fill="#CCCCCC" p-id="7342"></path><path d="M134.282346 448.520321h81.212525v216.058H134.282346z" fill="#CCCCCC" p-id="7343"></path><path d="M145.774793 460.012767h58.227631v193.073108H145.774793z" fill="#2D4151" p-id="7344"></path><path d="M808.505129 448.520321h81.214823v216.058h-81.214823z" fill="#CCCCCC" p-id="7345"></path><path d="M819.997576 460.012767h58.227631v193.073108h-58.227631z" fill="#2D4151" p-id="7346"></path><path d="M198.640048 473.911733v173.703737H151.523315c0 0.002298 41.345227-27.894467 47.116733-173.703737zM872.504267 473.911733v173.703737H825.387533c0 0.002298 41.342928-27.894467 47.116734-173.703737z" fill="#FCFAFA" p-id="7347"></path></svg>