<?xml version="1.0" standalone="no"?><!DOCTYPE svg PUBLIC "-//W3C//DTD SVG 1.1//EN" "http://www.w3.org/Graphics/SVG/1.1/DTD/svg11.dtd"><svg t="1584675662577" class="icon" viewBox="0 0 1088 1024" version="1.1" xmlns="http://www.w3.org/2000/svg" p-id="3767" xmlns:xlink="http://www.w3.org/1999/xlink" width="675.75" height="636"><defs><style type="text/css"></style></defs><path d="M1024 960l0-64-64 0 0-384 64 0 0-64-192 0 0 64 64 0 0 384-192 0 0-384 64 0 0-64-192 0 0 64 64 0 0 384-192 0 0-384 64 0 0-64-192 0 0 64 64 0 0 384-192 0 0-384 64 0 0-64-192 0 0 64 64 0 0 384-64 0 0 64-64 0 0 64 1088 0 0-64-64 0z" p-id="3768"></path><path d="M512 0l64 0 512 320 0 64-1088 0 0-64 512-320z" p-id="3769"></path></svg>